<?xml version="1.0" encoding="UTF-8" standalone="no"?>
<svg
        xmlns="http://www.w3.org/2000/svg"
        version="1.0"
        width="771.000000pt"
        height="983.000000pt"
        viewBox="0 0 771.000000 983.000000"
        preserveAspectRatio="xMidYMid meet"
        id="svg50">
  <metadata
          id="metadata56">

  </metadata>
  <defs
     id="defs54" />
  <g
     transform="translate(0.000000,983.000000) scale(0.100000,-0.100000)"
     fill="#000000"
     stroke="none"
     id="g48">
    <path
       d="M2725 8883 c4 -27 8 -50 10 -52 2 -2 24 -6 50 -8 l45 -6 0 -330 c0 -182 -2 -328 -4 -326 -2 2 -112 130 -245 283 l-240 279 29 34 c37 41 38 72 5 103 l-26 24 -119 -119 c-129 -129 -139 -148 -98 -192 l22 -23 33 32 c27 26 37 30 51 22 20 -13 551 -641 590 -698 l27 -39 3 -305 4 -305 -34 7 -35 6 -7 -47 c-10 -74 -3 -77 178 -81 178 -4 189 0 184 72 l-3 41 -52 3 c-29 2 -53 4 -53 5 -3 25 -30 1321 -30 1415 0 119 2 134 20 152 11 11 33 20 50 20 28 0 30 2 30 40 l0 40 -196 0 -196 0 7 -47z"
       id="path6" />
    <path
       d="M1937 8435 c-88 -13 -163 -27 -169 -33 -5 -5 -8 -29 -6 -53 l3 -44 57 -3 57 -3 5 -42 c3 -23 10 -262 16 -532 6 -269 13 -496 15 -502 3 -7 0 -13 -5 -13 -10 0 -246 468 -313 623 -26 59 -47 120 -47 136 0 29 6 38 49 73 24 20 28 71 9 112 -15 34 -24 31 -235 -70 -167 -80 -173 -84 -173 -113 0 -74 34 -96 109 -70 18 6 34 10 36 8 6 -7 136 -1489 133 -1517 -2 -20 -14 -32 -43 -48 -45 -23 -56 -55 -30 -84 26 -29 59 -29 203 1 179 38 182 39 182 86 0 62 -8 67 -88 59 l-70 -7 -6 68 c-3 37 -20 284 -36 548 -16 264 -31 492 -33 508 -2 15 -1 27 2 27 3 0 101 -185 217 -411 l212 -410 -44 -22 c-47 -22 -53 -39 -28 -75 21 -30 41 -28 169 14 112 37 145 56 145 82 0 24 -66 82 -94 82 -22 0 -26 4 -26 31 0 42 -48 867 -55 942 -3 34 -1 56 4 52 5 -3 41 -85 79 -183 39 -97 136 -343 216 -545 159 -402 156 -389 99 -449 l-25 -27 22 -35 c45 -73 73 -62 238 99 107 104 113 123 59 182 l-34 36 -41 -23 c-23 -13 -43 -22 -45 -19 -3 3 -532 1360 -562 1440 -5 13 3 20 30 29 25 8 41 22 52 46 15 31 15 35 -2 54 -21 24 -9 24 -208 -5z"
       id="path14" />
    <path
       d="M4591 7170 c-260 -14 -477 -44 -823 -116 -420 -86 -589 -146 -793 -278 -171 -112 -239 -199 -250 -326 -13 -142 -14 -145 -65 -210 -43 -53 -50 -67 -50 -106 0 -25 7 -67 16 -94 14 -44 14 -51 0 -78 -9 -17 -16 -37 -16 -45 0 -23 42 -53 97 -71 68 -22 116 -56 125 -86 4 -14 16 -65 27 -115 12 -49 52 -188 91 -308 38 -120 79 -269 91 -330 44 -229 94 -411 209 -764 65 -199 125 -371 132 -382 7 -12 30 -29 51 -39 22 -9 45 -28 52 -42 11 -22 143 -431 225 -696 41 -135 65 -158 195 -187 133 -30 210 -38 350 -38 256 0 474 61 695 193 175 105 350 254 370 314 9 27 8 87 -4 262 -38 550 -38 676 -1 769 13 34 15 107 13 553 -3 512 -3 515 -25 559 -29 57 -29 80 2 506 14 187 25 350 25 362 0 12 11 35 25 51 30 36 32 71 5 105 -20 25 -20 25 1 72 25 57 22 123 -8 164 -11 14 -45 41 -76 60 -45 27 -59 42 -71 75 -8 22 -23 64 -33 91 -23 66 -93 136 -158 159 -62 21 -215 27 -424 16z m389 -69 c151 -40 170 -99 68 -207 -91 -97 -208 -151 -608 -285 -354 -118 -647 -183 -956 -210 -119 -11 -172 -10 -336 3 l-195 15 -60 42 c-80 56 -92 79 -65 123 63 101 262 229 483 312 259 96 683 180 1034 206 83 6 166 12 185 14 19 1 112 4 206 4 140 2 183 -1 244 -17z m205 -273 c36 -110 36 -112 18 -137 -19 -26 -271 -162 -410 -221 -126 -53 -712 -240 -893 -285 -259 -63 -379 -79 -620 -79 -158 -1 -223 3 -285 16 -191 42 -242 71 -231 131 3 18 9 67 12 110 6 66 9 77 23 71 149 -62 384 -90 621 -74 357 25 646 88 1081 236 396 135 481 176 577 280 31 34 60 62 64 63 4 0 23 -49 43 -111z m155 -118 c19 -45 4 -77 -55 -122 -98 -75 -232 -133 -510 -223 -148 -48 -346 -120 -440 -160 -252 -107 -412 -152 -680 -192 -175 -25 -626 -25 -780 1 -167 27 -204 48 -205 114 0 27 11 63 25 80 2 2 16 -9 31 -23 94 -88 278 -122 609 -112 331 9 517 50 1055 232 586 198 646 222 784 310 61 39 86 69 86 101 0 12 3 29 6 38 9 24 58 -5 74 -44z m-16 -196 c26 -10 18 -32 -25 -72 -55 -49 -106 -81 -274 -168 -404 -210 -924 -373 -1320 -413 -113 -11 -465 -12 -695 -1 -136 6 -192 13 -250 31 -41 12 -79 26 -83 30 -12 10 20 67 41 74 11 3 75 -4 143 -15 169 -28 351 -35 559 -21 352 24 563 68 845 179 99 39 261 98 360 132 163 56 314 114 555 214 85 35 115 41 144 30z m-39 -291 c-13 -284 -59 -748 -77 -775 -20 -31 -245 -143 -444 -221 -156 -62 -298 -105 -455 -136 -96 -19 -459 -61 -659 -76 -47 -3 -134 -10 -195 -16 -60 -5 -152 -9 -203 -9 -145 0 -132 -24 -297 539 -36 124 -68 241 -71 261 l-6 36 109 -9 c150 -12 573 -2 723 17 390 50 753 148 1090 296 96 42 370 180 435 219 28 16 52 30 54 30 2 1 0 -70 -4 -156z m9 -1236 c-5 -487 -7 -514 -29 -558 -39 -77 -152 -162 -343 -258 -234 -118 -596 -230 -950 -296 -111 -21 -164 -25 -318 -25 l-184 0 -30 28 c-25 22 -44 67 -111 267 -44 132 -98 296 -120 365 -40 122 -119 414 -119 436 0 8 91 13 303 17 721 13 1284 143 1782 411 86 46 102 52 112 39 9 -11 10 -120 7 -426z m-50 -889 c4 -117 11 -313 17 -434 13 -273 4 -318 -76 -399 -41 -40 -177 -133 -283 -194 -319 -180 -652 -226 -981 -135 -47 13 -97 32 -111 42 -20 15 -41 67 -108 263 -81 240 -168 536 -160 545 3 2 74 11 159 19 560 54 1041 205 1444 454 44 27 83 50 86 50 4 1 10 -95 13 -211z"
       id="path16" />
    <path
       d="M4515 7053 c-349 -30 -759 -106 -1105 -203 -219 -62 -266 -89 -320 -184 -40 -69 -40 -116 0 -149 51 -43 119 -52 303 -40 174 12 369 51 952 188 252 60 278 68 391 125 170 85 208 130 158 190 -34 40 -55 48 -179 65 -98 14 -119 15 -200 8z m313 -77 c23 -16 42 -32 42 -36 0 -4 -15 -23 -32 -42 -59 -64 -316 -164 -585 -227 l-133 -32 -386 71 c-212 38 -387 70 -390 70 -2 0 -4 8 -4 19 0 16 24 23 178 54 97 20 254 52 349 71 331 69 479 85 749 82 l171 -1 41 -29z m-1262 -271 c148 -25 304 -52 348 -60 43 -8 80 -15 82 -15 2 0 4 -6 4 -14 0 -10 -28 -19 -92 -30 -51 -9 -144 -28 -207 -43 -136 -31 -181 -26 -313 32 -92 41 -104 52 -119 108 -12 44 -7 67 14 67 8 0 135 -20 283 -45z m-338 -16 c6 -25 7 -51 2 -64 -9 -23 -55 -45 -96 -45 -20 0 -24 5 -24 33 0 17 7 40 15 51 14 18 75 65 86 66 4 0 11 -19 17 -41z m120 -156 c24 -14 41 -27 39 -30 -7 -7 -217 8 -217 16 0 9 40 33 70 41 31 10 54 4 108 -27z"
       id="path18" />
    <path
       d="M2891 6556 l-22 -23 47 -42 c26 -22 50 -41 54 -41 3 0 19 13 34 29 l28 29 -48 36 c-27 19 -54 36 -60 36 -6 0 -21 -11 -33 -24z"
       id="path20" />
    <path
       d="M2061 6239 c-20 -57 -15 -66 55 -106 53 -31 64 -42 60 -58 -84 -328 -322 -1193 -327 -1187 -3 4 -36 99 -73 212 -57 174 -66 209 -57 233 6 15 15 27 21 27 5 0 17 11 26 25 14 22 15 32 5 65 -6 22 -15 40 -19 39 -4 0 -72 -31 -152 -68 -130 -61 -145 -70 -148 -95 -2 -15 4 -39 13 -52 13 -21 23 -25 53 -22 l37 3 108 -315 c96 -280 108 -323 109 -385 0 -58 -19 -147 -111 -505 -122 -473 -208 -784 -241 -873 -33 -87 -75 -112 -149 -86 -56 20 -77 90 -66 223 l7 84 50 7 c63 9 88 32 88 84 l0 39 -62 11 c-187 33 -289 44 -299 34 -6 -6 -14 -31 -16 -56 -5 -44 -4 -46 36 -72 22 -15 41 -33 41 -39 0 -6 -5 -72 -11 -146 -11 -119 -10 -142 4 -191 35 -118 149 -202 273 -203 120 0 192 49 233 159 23 61 171 622 556 2100 131 501 240 913 244 916 3 4 42 -2 86 -13 100 -24 120 -17 133 44 5 24 6 47 2 51 -8 9 -465 147 -486 147 -7 0 -17 -14 -23 -31z"
       id="path24" />
    <path
       d="M5870 6243 c-187 -53 -346 -105 -357 -116 -6 -7 -15 -24 -18 -38 -6 -22 -2 -28 26 -39 26 -11 43 -11 91 -1 33 7 63 10 66 6 6 -5 70 -1591 71 -1752 l1 -82 -67 -3 c-67 -3 -68 -4 -71 -32 -5 -45 6 -76 33 -86 29 -11 414 18 433 32 15 13 16 90 0 106 -7 7 -34 12 -60 12 -39 0 -48 3 -48 18 0 9 -16 220 -35 467 -25 318 -38 580 -47 891 -12 433 -11 441 8 475 14 23 34 39 65 50 35 13 45 22 47 43 4 30 -22 77 -41 75 -6 -1 -50 -12 -97 -26z"
       id="path26" />
    <path
       d="M6635 6236 c-14 -14 -26 -41 -30 -70 l-7 -46 -37 7 c-20 5 -79 8 -131 8 -75 0 -105 -5 -142 -22 -93 -42 -194 -164 -240 -289 -28 -75 -29 -215 -4 -284 23 -63 123 -241 304 -545 187 -313 233 -400 274 -525 30 -90 32 -103 32 -245 0 -136 -3 -158 -27 -230 -59 -179 -165 -302 -331 -385 -87 -44 -130 -50 -212 -25 -59 17 -127 73 -153 124 -10 20 -28 68 -40 107 -12 40 -27 74 -35 77 -24 9 -127 -9 -137 -24 -11 -16 -12 -21 -75 -289 -69 -297 -69 -300 6 -314 57 -10 67 5 101 149 17 72 32 135 34 141 2 6 32 -17 67 -51 82 -80 149 -107 263 -108 245 -1 473 147 602 390 149 279 158 565 28 878 -45 109 -65 146 -268 490 -88 149 -176 304 -196 345 -35 72 -36 79 -36 185 0 64 6 129 14 155 27 93 141 158 226 130 43 -14 55 -35 55 -92 0 -24 7 -54 16 -67 14 -20 23 -22 57 -18 22 3 46 11 53 19 11 12 64 348 64 410 0 18 -6 27 -22 32 -38 10 -48 7 -73 -18z"
       id="path28" />
    <path
       d="M1350 6019 c-146 -3 -311 -7 -367 -8 -136 -1 -138 -3 -146 -146 -5 -90 -3 -113 10 -136 16 -27 17 -27 50 -11 24 12 36 26 43 52 18 68 36 75 177 74 77 -1 129 -6 136 -13 8 -8 5 -86 -12 -298 -24 -308 -106 -1301 -117 -1420 -7 -79 -21 -99 -77 -118 -25 -8 -33 -17 -35 -39 -5 -43 6 -74 28 -81 20 -6 279 37 324 55 34 12 49 45 41 87 -5 26 -10 33 -23 29 -9 -2 -34 -7 -54 -11 l-38 -6 0 60 c0 69 41 649 70 994 17 200 43 427 76 670 4 26 16 59 26 72 19 24 23 25 155 25 l136 0 -7 -55 c-6 -53 -5 -56 20 -65 42 -16 72 -12 88 13 8 12 22 75 32 141 17 115 17 119 -1 132 -21 15 -66 16 -535 3z"
       id="path30" />
    <path
       d="M2343 5604 c-7 -3 -17 -21 -23 -39 -15 -45 0 -75 38 -75 55 0 55 4 2 -310 -26 -162 -72 -437 -100 -610 -56 -341 -153 -839 -198 -1014 l-28 -108 -37 -3 c-21 -1 -43 -7 -49 -13 -12 -12 -2 -66 15 -80 13 -10 146 -47 220 -61 45 -8 49 -7 72 21 39 46 32 75 -27 111 -20 13 -28 26 -28 47 0 24 129 785 145 856 4 19 13 22 97 26 159 9 210 45 289 201 115 227 168 491 140 691 -30 214 -148 319 -394 351 -65 8 -119 15 -120 14 -1 0 -7 -3 -14 -5z m273 -195 c114 -78 146 -199 109 -411 -26 -153 -122 -394 -177 -445 -32 -31 -90 -53 -136 -53 l-38 0 57 298 c31 163 71 375 90 470 18 94 36 172 41 172 5 0 30 -14 54 -31z"
       id="path32" />
    <path
       d="M2840 4330 c-367 -94 -359 -89 -328 -191 10 -37 14 -39 50 -39 21 0 38 -4 38 -9 0 -4 20 -192 45 -417 25 -225 45 -416 45 -425 0 -11 -17 -21 -51 -30 -63 -17 -77 -35 -58 -75 11 -23 22 -30 49 -32 30 -2 475 81 581 108 75 20 87 68 49 193 -17 53 -27 70 -50 82 -16 8 -31 15 -34 15 -13 0 -24 -65 -19 -117 3 -40 1 -63 -9 -75 -12 -16 -91 -34 -233 -53 -82 -10 -86 -4 -101 170 -15 170 -11 189 50 200 50 10 69 3 84 -28 10 -20 20 -27 42 -27 74 0 83 23 70 179 -12 142 -14 151 -49 151 -43 0 -60 -20 -63 -75 l-3 -49 -68 -15 c-61 -13 -70 -12 -84 2 -20 19 -30 85 -39 241 -8 144 -10 141 114 180 107 34 112 33 112 -6 0 -37 33 -98 53 -98 7 0 23 7 35 16 19 13 22 24 22 77 0 34 -3 92 -7 130 -5 60 -8 67 -27 67 -12 0 -109 -23 -216 -50z"
       id="path34" />
    <path
       d="M6430 3153 c-19 -2 -213 -24 -430 -48 -492 -56 -620 -72 -643 -80 -25 -10 -33 -53 -14 -84 11 -19 27 -28 57 -32 45 -6 57 -18 65 -64 3 -16 32 -284 65 -595 33 -311 71 -661 85 -779 13 -118 22 -217 20 -221 -3 -4 -34 -13 -70 -20 -86 -16 -99 -30 -92 -92 7 -60 12 -68 41 -68 16 0 833 229 1019 286 10 3 24 16 32 28 14 20 13 36 -5 142 -40 234 -36 224 -79 224 -20 0 -42 -5 -49 -12 -15 -15 -15 -78 -1 -170 10 -64 9 -72 -8 -88 -24 -23 -586 -180 -599 -168 -1 2 -23 138 -49 303 -33 213 -43 305 -37 320 8 18 35 27 153 53 207 46 192 47 200 -16 8 -64 22 -82 63 -82 62 0 61 -5 48 244 -6 124 -16 235 -22 245 -12 24 -80 37 -109 21 -19 -9 -21 -20 -21 -94 0 -116 -6 -122 -145 -147 -186 -34 -192 -34 -203 -12 -6 11 -22 152 -37 314 -38 427 -39 455 -27 463 7 4 161 18 343 32 l331 26 24 -23 c22 -21 24 -30 24 -120 0 -56 4 -101 10 -104 14 -9 105 22 121 41 9 11 13 68 13 197 1 204 7 189 -74 180z"
       id="path36" />
    <path
       d="M2187 3018 c-8 -13 -20 -44 -27 -70 -7 -27 -15 -48 -17 -48 -3 0 -18 9 -33 20 -88 63 -178 75 -277 39 -112 -42 -187 -103 -261 -214 -128 -193 -180 -379 -204 -741 -13 -192 0 -456 28 -593 40 -193 183 -386 323 -436 24 -8 71 -15 105 -15 115 0 208 69 266 195 64 139 120 386 100 439 -9 24 -14 26 -62 25 -103 -2 -97 6 -140 -179 -54 -234 -98 -314 -173 -314 -49 0 -88 41 -140 149 -55 112 -90 233 -106 364 -17 137 2 575 30 701 53 236 144 385 274 450 138 69 174 29 202 -222 l6 -58 38 0 c20 0 45 6 54 13 15 10 59 176 124 466 12 49 -83 74 -110 29z"
       id="path38" />
    <path
       d="M2973 3004 c-14 -6 -17 -42 -7 -69 4 -8 19 -22 35 -30 l28 -15 -56 -88 c-68 -106 -63 -101 -77 -78 -73 124 -219 178 -336 125 -103 -47 -125 -88 -122 -238 2 -113 1 -115 -37 -200 -106 -234 -151 -515 -131 -803 21 -294 168 -530 343 -554 200 -28 345 202 401 634 20 155 20 390 0 547 -33 264 -31 291 32 366 19 22 34 45 34 49 0 4 18 48 41 96 28 61 43 84 48 75 15 -23 86 17 86 48 0 20 -16 33 -100 79 -93 51 -153 69 -182 56z m-270 -345 c25 -13 87 -69 87 -79 0 -12 -87 -50 -114 -50 -26 0 -76 39 -76 59 0 19 21 66 33 73 17 11 45 10 70 -3z m121 -276 l38 -5 -5 -277 c-6 -367 -34 -581 -93 -705 -37 -79 -67 -106 -118 -106 -118 0 -210 192 -223 466 -7 155 12 281 74 467 59 178 62 181 193 172 52 -3 112 -8 134 -12z"
       id="path40" />
    <path
       d="M5011 2807 c-62 -20 -135 -99 -184 -200 -117 -240 -180 -507 -193 -815 -8 -176 5 -292 46 -403 33 -92 105 -206 158 -249 90 -74 229 -80 319 -14 49 37 71 82 108 225 l35 134 52 46 c47 42 51 49 38 62 -14 14 -224 47 -296 47 -42 0 -57 -20 -49 -63 6 -33 11 -36 56 -47 27 -7 52 -16 55 -21 7 -13 -23 -113 -51 -169 -44 -87 -93 -113 -145 -78 -84 57 -126 168 -142 373 -13 157 -9 187 25 202 13 6 107 27 208 47 232 46 260 55 276 86 16 31 18 373 3 502 -21 179 -78 302 -157 334 -38 16 -114 17 -162 1z m120 -215 c21 -19 34 -42 39 -72 14 -72 34 -394 26 -424 -4 -18 -18 -32 -39 -41 -32 -13 -318 -67 -324 -61 -2 2 4 52 13 112 37 250 108 441 183 491 44 30 64 29 102 -5z"
       id="path42" />
    <path
       d="M4525 2724 c-60 -19 -208 -63 -328 -98 -120 -36 -227 -72 -238 -82 -22 -20 -25 -70 -7 -110 12 -25 15 -26 64 -20 29 3 59 9 68 12 20 8 21 76 -14 -616 -16 -322 -30 -595 -30 -607 0 -21 -5 -23 -48 -23 -57 0 -72 -12 -72 -60 0 -63 0 -63 181 -58 90 3 171 8 180 12 26 11 45 54 32 74 -8 13 -26 17 -74 18 -53 1 -65 4 -68 19 -6 33 30 550 41 578 11 28 36 34 84 21 19 -5 21 -11 17 -45 -4 -29 -1 -45 12 -59 18 -20 69 -27 91 -12 11 6 38 126 64 282 6 36 13 72 16 81 3 13 -6 19 -41 28 -60 15 -81 3 -90 -50 -4 -24 -18 -53 -32 -67 -20 -20 -30 -23 -61 -17 -20 4 -39 8 -43 10 -3 2 7 113 22 247 16 134 28 250 29 259 0 33 29 52 125 80 55 15 101 26 104 23 2 -2 7 -39 10 -82 4 -42 10 -83 14 -89 16 -25 98 -10 119 21 4 6 8 91 8 189 0 135 -3 177 -12 176 -7 -1 -62 -17 -123 -35z"
       id="path44" />
    <path
       d="M3498 2652 l-318 -66 0 -58 0 -58 49 0 49 0 6 -82 c8 -107 54 -1312 50 -1316 -1 -2 -20 -6 -42 -9 -43 -6 -52 -19 -52 -75 0 -39 23 -47 158 -58 64 -6 131 -12 147 -15 44 -7 75 18 75 60 0 33 -2 35 -40 41 -22 4 -45 13 -52 22 -17 20 -70 667 -57 699 11 30 28 36 70 26 27 -7 36 -16 43 -44 12 -41 21 -49 63 -49 49 0 58 25 76 204 19 179 17 186 -42 186 -49 0 -61 -14 -61 -71 0 -65 -21 -86 -92 -97 -32 -5 -60 -7 -63 -4 -3 3 -5 129 -5 281 0 200 4 283 13 301 15 29 49 38 162 41 l79 2 11 -65 c12 -76 27 -98 65 -98 50 0 53 14 45 195 -4 91 -10 167 -14 169 -3 1 -149 -26 -323 -62z"
       id="path46" />
  </g>
  <path
     id="path881"
     style="fill:#ff0000;stroke-width:1.18434"
     d="m 356.49242,79.031252 c -11.84277,-0.21069 -24.32958,2.17292 -24.32958,5.85498 0,4.29327 2.39896,6.30762 7.51318,6.30762 8.66894,0 8.80128,0.31368 10.19238,24.278318 1.49228,25.70766 3.60784,89.37818 3.61084,108.66358 0.002,13.01532 -0.14827,13.91601 -2.31152,13.91601 -3.36568,0 -8.10633,2.4045 -8.91944,4.52344 -1.11336,2.90137 3.22297,6.18975 9.55958,7.25098 19.35407,3.24134 30.40467,-0.0192 39.21533,-11.5708 5.44576,-7.13986 7.84297,-16.2879 7.71972,-29.4668 -0.14735,-15.75756 -5.02178,-25.78413 -16.30811,-33.54932 l -5.32177,-3.66065 2.42725,-3.18163 c 1.33473,-1.74982 5.35688,-6.91296 8.93847,-11.47266 10.47842,-13.33998 13.55592,-27.72762 9.36915,-43.80176 -3.86559,-14.840978 -14.9933,-28.139748 -26.83887,-32.074218 -3.88368,-1.28995 -9.13353,-1.92132 -14.51661,-2.01709 z m 79.12647,4.25244 c -2.18822,-0.0714 -5.43846,0.69067 -11.97363,2.5957 -15.34221,4.47233 -16.86915,5.2166 -16.86915,8.22803 0,3.44911 2.19447,5.37744 6.12159,5.37744 2.0904,0 3.10479,0.535698 2.79785,1.479498 -0.26481,0.81423 -1.0829,19.06873 -1.8164,40.56445 -3.54999,104.03335 -2.80096,96.52295 -9.61671,96.52295 -3.57723,0 -8.14599,3.57921 -8.14599,6.38233 0,0.9049 0.93282,2.77774 2.07275,4.16162 1.86736,2.267 3.83236,2.61533 19.83838,3.51123 30.5399,1.70942 59.03285,1.57768 61.5791,-0.28418 1.81553,-1.32755 2.31718,-3.60679 2.73926,-12.43506 0.35904,-7.50954 0.11186,-10.81055 -0.81152,-10.81055 -2.17633,0 -6.06739,4.55673 -6.06739,7.10596 0,2.29375 -0.78848,2.36865 -24.94921,2.36865 h -24.95069 l 0.66797,-12.13916 c 0.36735,-6.6767 1.23397,-32.39237 1.92627,-57.14502 1.24859,-44.6423 2.65863,-70.535898 4.03564,-74.093258 0.39377,-1.01725 2.56357,-2.51776 4.82081,-3.33398 4.97826,-1.80017 5.53545,-5.46731 1.13525,-7.47218 -0.76431,-0.34824 -1.53953,-0.55202 -2.53418,-0.58447 z m 42.98877,7.76514 c -12.20336,-0.0937 -21.61331,6.43938 -27.0835,18.805668 -6.76615,15.29599 -11.21021,45.39523 -9.8789,66.90234 1.38338,22.34851 5.45123,32.04207 15.32812,36.52735 5.83388,2.64927 14.98904,2.91404 19.53077,0.56542 12.19072,-6.30407 24.35071,-32.73059 29.66894,-64.47509 4.35456,-25.99229 2.79299,-39.64385 -5.60449,-48.9668 -5.80437,-6.444058 -12.4752,-9.286058 -21.96094,-9.358888 z m -114.46728,2.25732 3.25634,0.77344 c 11.49873,2.73267 20.30791,19.902198 18.94189,36.919928 -0.78489,9.7782 -6.54951,20.67759 -13.44579,25.42236 -2.76879,1.90497 -5.54317,3.46435 -6.16407,3.46435 -2.16213,0 -2.55621,-5.52073 -2.57226,-35.95458 z m 115.30517,12.109868 c 3.11997,0.064 6.30566,0.87728 8.16065,2.33642 6.41856,5.04885 8.94528,18.26343 6.8496,35.81544 -2.74229,22.96763 -12.6226,52.46768 -19.09131,56.99853 -6.79973,4.76272 -15.27306,0.88701 -17.51367,-8.01123 -2.52298,-10.01982 -3.97877,-34.4259 -2.58837,-43.38721 2.79816,-18.03461 11.62658,-39.25439 17.6792,-42.49365 1.69022,-0.90458 4.07726,-1.30808 6.5039,-1.2583 z m 66.22705,16.7124 c -3.3939,0.0778 -5.10602,0.85212 -8.729,3.18017 -16.44708,10.56859 -30.63919,48.96132 -35.45069,95.896 -2.35559,22.97803 3.1816,37.33395 17.20313,44.6001 4.43871,2.3002 13.87829,2.39558 18.15674,0.18311 1.77947,-0.9202 5.63786,-4.25236 8.57373,-7.40332 17.10503,-18.35818 31.00233,-57.46907 31.07373,-87.44825 0.0308,-12.94745 -3.14774,-30.44307 -6.67236,-36.72656 -4.09752,-7.30481 -11.24461,-11.63556 -20.0669,-12.1582 -1.63832,-0.0971 -2.95707,-0.14898 -4.08838,-0.12305 z m 36.01318,4.91016 c -3.83484,0.002 -4.49351,1.51832 -5.48877,5.93115 l -0.94042,4.16602 6.65771,1.32715 c 3.66149,0.73023 7.42028,1.81011 8.35254,2.39941 2.61652,1.65398 1.88399,11.28623 -3.98437,52.43701 -2.90631,20.37996 -6.92016,53.30902 -8.9209,73.17627 -4.40702,43.76158 -5.81369,54.06725 -7.57471,55.52344 -0.74221,0.61375 -2.93,1.29564 -4.86328,1.51612 -2.97175,0.33891 -3.67755,1.09028 -4.56299,4.85742 -0.57602,2.45073 -0.73324,5.27604 -0.34864,6.27831 0.89633,2.33579 10.08492,6.40795 17.15479,7.60254 23.23201,3.92554 45.76181,-6.43332 54.9917,-25.2832 6.6156,-13.51082 14.17893,-50.83264 16.41943,-81.02051 1.504,-20.26407 -0.065,-52.71455 -3.0967,-64.06641 -6.67427,-24.98968 -25.2115,-39.49807 -56.26755,-44.03906 -3.38512,-0.49496 -5.78472,-0.80654 -7.52784,-0.80566 z M 550.92553,139.875 c 2.84966,0.0722 5.08023,2.34428 7.5044,6.98292 1.89213,3.62061 1.85489,22.73848 -0.0718,36.81005 -3.35914,24.53373 -13.95613,54.21742 -22.02832,61.70216 -5.48364,5.08456 -9.01612,5.3682 -12.6753,1.01952 -4.33794,-5.15536 -5.53686,-10.58541 -5.54443,-25.11035 -0.008,-15.74931 1.86074,-25.64324 8.8081,-46.64209 7.04853,-21.3046 9.60217,-26.30202 15.85254,-31.01806 3.34724,-2.52557 5.93839,-3.80032 8.15479,-3.74415 z m 57.77783,8.16651 c 2.41021,0 15.37699,10.02348 18.32813,14.16797 5.29891,7.44163 6.11109,12.99327 6.76758,46.2334 0.56529,28.62248 0.4036,32.42806 -1.83692,43.229 -6.01234,28.98387 -14.95689,53.12331 -22.46045,60.61377 -2.07482,2.07121 -6.56743,5.12707 -9.9829,6.79102 -3.41547,1.66393 -8.02561,3.38382 -10.24512,3.82177 l -4.03565,0.79688 0.79834,-5.81104 c 0.43864,-3.196 3.18813,-28.72821 6.11133,-56.73779 7.92817,-75.96616 13.36441,-113.10498 16.55566,-113.10498 z m -239.86231,41.48291 c 0.70403,0.0255 1.59258,0.18442 2.69679,0.33252 3.86175,0.51797 6.04427,1.7614 9.39404,5.35254 5.545,5.94452 7.37613,12.3148 5.69531,19.81494 -1.59252,7.10613 -2.7433,9.19013 -8.55908,15.49951 -2.61528,2.83725 -5.42493,5.15918 -6.24317,5.15918 -1.53051,0 -1.99346,-3.05279 -4.13525,-27.24023 -1.47296,-16.6344 -1.89939,-19.02881 1.15136,-18.91846 z m 61.73877,303.15967 c -0.96008,0 -14.29113,5.40119 -20.42431,8.2749 l -3.13477,1.46924 2.24561,7.85596 c 1.23564,4.32081 2.24707,8.4851 2.24707,9.25488 0,2.61705 -3.68246,5.09397 -10.43554,7.01807 -3.70553,1.05577 -7.07833,2.25984 -7.49415,2.67627 -0.41581,0.41642 0.94494,6.08673 3.02344,12.60058 l 3.7793,11.84327 8.96191,-0.32227 8.96192,-0.32373 2.67773,7.16162 c 1.47291,3.93852 3.54189,7.67801 4.59668,8.31006 2.25929,1.3538 5.78964,0.66924 13.37988,-2.59424 8.16715,-3.51157 9.72173,-5.64886 8.1709,-11.23388 -0.69481,-2.50225 -1.26627,-6.72163 -1.27002,-9.37647 -0.007,-5.28887 1.52578,-7.20774 10.32862,-12.92578 3.60751,-2.34332 5.19988,-4.28881 5.69971,-6.9624 0.7927,-4.24028 -0.95916,-13.49828 -3.77344,-19.94385 l -1.91748,-4.3916 -7.91309,4.09423 c -4.35261,2.25247 -8.53195,4.09571 -9.28711,4.09571 -1.70966,0 -4.31372,-4.93626 -6.09228,-11.54736 -0.74478,-2.76839 -1.79389,-5.03321 -2.33058,-5.03321 z" />
</svg>
